<?xml version="1.0" standalone="no"?>
<!DOCTYPE svg PUBLIC "-//W3C//DTD SVG 20010904//EN"
 "http://www.w3.org/TR/2001/REC-SVG-20010904/DTD/svg10.dtd">
<svg version="1.0" xmlns="http://www.w3.org/2000/svg"
 width="56.000000pt" height="56.000000pt" viewBox="0 0 256.000000 256.000000"
 preserveAspectRatio="xMidYMid meet">

<g transform="translate(0.000000,256.000000) scale(0.100000,-0.100000)"
fill="#FFFFFF" stroke="none">
<path d="M1532 2471 c-9 -5 -12 -27 -10 -72 3 -56 5 -64 23 -64 18 0 20 7 20
69 0 68 -7 84 -33 67z"/>
<path d="M1675 2335 c-40 -46 -45 -58 -35 -70 7 -8 18 -15 24 -15 18 0 96 97
96 119 0 38 -36 23 -85 -34z"/>
<path d="M1345 2175 c-354 -95 -740 -436 -877 -771 -54 -133 -47 -237 18 -296
11 -9 183 -84 384 -166 469 -193 470 -194 470 -209 0 -7 -9 -36 -21 -65 -47
-119 17 -248 123 -248 60 0 88 32 98 113 4 37 14 74 20 82 35 42 120 -16 167
-113 24 -49 28 -72 33 -177 5 -111 7 -125 33 -163 27 -42 89 -82 126 -82 11 0
33 11 49 25 33 28 52 90 52 171 0 40 5 50 36 77 45 40 74 96 74 143 0 20 -23
95 -54 173 -30 75 -79 206 -109 291 -30 85 -114 317 -187 515 -73 198 -157
430 -187 515 -30 85 -64 165 -75 178 -25 26 -92 29 -173 7z m140 -58 c13 -21
47 -119 42 -123 -1 -1 -28 -9 -60 -18 -32 -9 -99 -35 -150 -57 -51 -22 -97
-43 -104 -46 -7 -3 -18 10 -27 30 -8 19 -30 53 -50 74 l-36 40 88 41 c101 47
194 75 264 81 10 0 24 -9 33 -22z m-398 -169 c17 -18 39 -49 48 -68 17 -33 17
-35 -1 -47 -109 -76 -191 -144 -235 -195 -29 -35 -58 -69 -65 -77 -11 -12 -19
-9 -51 16 -21 17 -53 38 -70 47 -18 9 -33 21 -33 26 0 18 198 210 278 269 46
33 87 61 91 61 4 0 21 -15 38 -32z m438 -25 c-48 -25 -66 -45 -91 -98 -45 -96
-25 -196 54 -267 50 -45 75 -52 156 -44 l62 6 27 -75 26 -75 -30 0 c-63 0
-135 -51 -158 -113 -29 -75 2 -169 68 -214 56 -38 144 -27 204 25 9 8 19 13
21 11 3 -2 23 -56 45 -118 36 -101 39 -116 26 -131 -42 -46 -58 -165 -32 -238
17 -45 63 -91 114 -113 24 -10 43 -22 43 -26 0 -4 -16 -18 -35 -30 -57 -38
-69 -65 -68 -155 2 -95 -8 -128 -40 -128 -27 0 -62 23 -79 53 -8 14 -13 67
-13 152 0 124 -1 133 -30 189 -37 73 -112 158 -161 181 -30 14 -40 15 -66 4
-47 -19 -79 -77 -88 -160 -4 -39 -13 -76 -18 -81 -18 -18 -62 1 -82 35 -27 43
-25 81 6 147 14 30 27 75 27 100 l2 45 -121 50 -122 50 -26 53 c-37 74 -106
145 -168 172 -65 28 -152 25 -219 -8 -58 -28 -80 -22 -72 21 16 83 69 203 133
299 137 206 260 310 488 413 133 60 303 114 217 68z m103 -193 c30 -82 49
-147 44 -152 -19 -19 -79 -20 -117 -3 -68 33 -106 119 -85 196 13 46 71 114
92 107 7 -3 37 -69 66 -148z m-866 -207 c23 -24 23 -24 4 -56 -53 -88 -106
-204 -121 -266 l-17 -70 -51 20 c-67 26 -97 55 -97 91 0 60 68 223 132 316
l29 43 49 -27 c27 -15 59 -38 72 -51z m1015 -215 c12 -16 63 -149 63 -165 0
-6 -21 -25 -47 -43 -59 -39 -104 -36 -145 9 -38 42 -45 91 -21 137 30 58 123
96 150 62z m-791 -243 c37 -22 113 -110 102 -120 -5 -5 -297 119 -298 127 0
14 65 27 109 23 24 -3 64 -16 87 -30z m1037 -411 c45 -107 53 -134 42 -134 -3
0 -24 9 -45 20 -49 25 -73 70 -74 135 -1 58 12 112 23 99 4 -5 29 -59 54 -120z"/>
<path d="M1163 1763 c-18 -7 -16 -42 3 -50 8 -3 23 1 31 10 13 13 14 19 3 31
-13 17 -17 18 -37 9z"/>
<path d="M1082 1569 c-62 -31 -94 -79 -100 -144 -5 -65 17 -108 78 -150 106
-74 251 -17 267 105 4 30 -1 53 -21 95 -50 102 -137 139 -224 94z m125 -54
c12 -8 31 -30 42 -49 59 -95 -19 -196 -125 -160 -74 25 -109 91 -80 150 29 63
114 93 163 59z"/>
<path d="M1367 1523 c-13 -12 -7 -41 9 -47 19 -7 44 10 44 29 0 19 -39 32 -53
18z"/>
<path d="M1606 1474 c-11 -30 33 -60 49 -34 11 17 -5 50 -25 50 -10 0 -21 -7
-24 -16z"/>
<path d="M844 1326 c-9 -22 4 -36 32 -36 21 0 25 4 22 23 -4 26 -45 37 -54 13z"/>
<path d="M1445 1090 c-17 -19 -17 -20 2 -20 12 0 23 7 26 15 9 23 -9 26 -28 5z"/>
<path d="M1237 982 c-13 -14 -15 -22 -7 -27 16 -10 33 9 28 30 -3 16 -5 15
-21 -3z"/>
<path d="M1583 879 c-17 -17 2 -49 28 -49 16 0 20 5 17 27 -3 30 -26 41 -45
22z"/>
<path d="M1794 805 c-8 -20 4 -35 27 -35 14 0 19 7 19 25 0 18 -5 25 -20 25
-11 0 -23 -7 -26 -15z"/>
<path d="M1800 2181 c-44 -9 -60 -18 -60 -36 0 -24 18 -27 92 -15 77 12 100
23 91 46 -6 15 -60 17 -123 5z"/>
</g>
</svg>
